<?xml version="1.0" standalone="no"?>
<!DOCTYPE svg PUBLIC "-//W3C//DTD SVG 20010904//EN"
 "http://www.w3.org/TR/2001/REC-SVG-20010904/DTD/svg10.dtd">
<svg version="1.0" xmlns="http://www.w3.org/2000/svg"
 width="500.000000pt" height="500.000000pt" viewBox="0 0 500.000000 500.000000"
 preserveAspectRatio="xMidYMid meet">
<metadata>
Created by potrace 1.14, written by Peter Selinger 2001-2017
</metadata>
<g transform="translate(0.000000,500.000000) scale(0.100000,-0.100000)"
fill="#000000" stroke="none">
<path d="M2470 3909 c-31 -7 -273 -98 -355 -133 -16 -7 -46 -19 -65 -26 -19
-6 -44 -16 -55 -21 -11 -5 -74 -29 -140 -55 -66 -25 -239 -92 -385 -149 -146
-57 -473 -185 -728 -284 -255 -99 -474 -187 -488 -196 -55 -36 -20 -76 109
-125 48 -18 88 -36 88 -39 1 -3 2 -395 3 -871 1 -795 2 -868 18 -892 9 -14 28
-28 42 -30 33 -7 83 18 90 45 3 12 6 397 6 856 0 789 1 833 17 828 16 -4 357
-136 673 -260 63 -25 205 -80 315 -122 110 -43 214 -83 230 -90 17 -7 77 -31
135 -53 192 -74 294 -114 398 -154 74 -29 112 -39 135 -35 26 4 521 194 1372
527 55 21 154 60 220 85 66 26 181 71 255 99 74 29 190 74 257 100 67 26 129
56 138 66 24 27 11 56 -38 79 -33 15 -935 368 -1332 521 -38 15 -241 93 -450
175 -209 81 -391 151 -405 155 -14 3 -41 3 -60 -1z"/>
<path d="M1399 2364 c0 -5 -1 -187 -1 -405 -1 -390 0 -398 21 -443 41 -84 183
-194 361 -279 91 -44 251 -100 315 -111 17 -3 57 -10 90 -16 94 -16 171 -23
290 -23 111 -1 282 9 307 17 7 3 30 7 50 10 237 35 535 175 682 322 86 86 84
70 84 530 0 222 -3 404 -5 404 -5 0 -129 -47 -158 -60 -11 -5 -85 -35 -165
-66 -80 -31 -172 -66 -205 -79 -33 -13 -121 -47 -195 -76 -74 -28 -173 -68
-220 -87 -131 -54 -188 -51 -345 18 -11 4 -78 31 -150 58 -71 28 -182 71 -245
95 -280 110 -354 139 -412 161 -35 13 -71 27 -80 31 -10 4 -18 3 -19 -1z"/>
</g>
</svg>
